####
#
# OBJ File Generated by Meshlab
#
####
# Object cylinder.obj
#
# Vertices: 64
# Faces: 124
#
####
vn 0.098023 -30.000000 -2.985554
v 0.000000 -0.500000 -1.000000
vn -0.098009 1.000000 -2.985555
v 0.000000 0.500000 -1.000000
vn 0.678582 -1.000000 -2.909067
v 0.195090 -0.500000 -0.980785
vn 0.486319 30.000000 -2.947310
v 0.195090 0.500000 -0.980785
vn 1.233074 -2.000000 -2.720784
v 0.382683 -0.500000 -0.923880
vn 1.051960 1.000000 -2.795804
v 0.382683 0.500000 -0.923880
vn 1.740182 -2.000000 -2.427943
v 0.555570 -0.500000 -0.831470
vn 1.577186 2.000000 -2.536854
v 0.555570 0.500000 -0.831470
vn 2.180415 -2.000000 -2.041796
v 0.707107 -0.500000 -0.707107
vn 2.041796 2.000000 -2.180415
v 0.707107 0.500000 -0.707107
vn 2.536854 -2.000000 -1.577186
v 0.831470 -0.500000 -0.555570
vn 2.427943 2.000000 -1.740182
v 0.831470 0.500000 -0.555570
vn 2.795804 -2.000000 -1.051960
v 0.923880 -0.500000 -0.382683
vn 2.720784 2.000000 -1.233074
v 0.923880 0.500000 -0.382683
vn 2.947310 -2.000000 -0.486319
v 0.980785 -0.500000 -0.195090
vn 2.909067 2.000000 -0.678582
v 0.980785 0.500000 -0.195090
vn 2.985554 -2.000000 0.098019
v 1.000000 -0.500000 -0.000000
vn 2.985554 2.000000 -0.098019
v 1.000000 0.500000 -0.000000
vn 2.909067 -2.000000 0.678582
v 0.980785 -0.500000 0.195090
vn 2.947310 2.000000 0.486319
v 0.980785 0.500000 0.195090
vn 2.720784 -2.000000 1.233074
v 0.923880 -0.500000 0.382683
vn 2.795804 2.000000 1.051960
v 0.923880 0.500000 0.382683
vn 2.427943 -2.000000 1.740182
v 0.831470 -0.500000 0.555570
vn 2.536854 2.000000 1.577186
v 0.831470 0.500000 0.555570
vn 2.041796 -2.000000 2.180415
v 0.707107 -0.500000 0.707107
vn 2.180415 2.000000 2.041796
v 0.707107 0.500000 0.707107
vn 1.577186 -2.000000 2.536854
v 0.555570 -0.500000 0.831470
vn 1.740182 2.000000 2.427943
v 0.555570 0.500000 0.831470
vn 1.051960 -2.000000 2.795804
v 0.382683 -0.500000 0.923880
vn 1.233074 2.000000 2.720784
v 0.382683 0.500000 0.923880
vn 0.486319 -2.000000 2.947310
v 0.195090 -0.500000 0.980785
vn 0.678582 2.000000 2.909067
v 0.195090 0.500000 0.980785
vn -0.098018 -2.000000 2.985554
v -0.000000 -0.500000 1.000000
vn 0.098019 2.000000 2.985554
v -0.000000 0.500000 1.000000
vn -0.678590 -2.000000 2.909065
v -0.195091 -0.500000 0.980785
vn -0.486322 2.000000 2.947309
v -0.195091 0.500000 0.980785
vn -1.233079 -2.000000 2.720783
v -0.382684 -0.500000 0.923879
vn -1.051969 2.000000 2.795801
v -0.382684 0.500000 0.923879
vn -1.740187 -2.000000 2.427939
v -0.555571 -0.500000 0.831469
vn -1.577189 2.000000 2.536852
v -0.555571 0.500000 0.831469
vn -2.180413 -2.000000 2.041800
v -0.707107 -0.500000 0.707106
vn -2.041799 2.000000 2.180413
v -0.707107 0.500000 0.707106
vn -2.536852 -2.000000 1.577188
v -0.831470 -0.500000 0.555570
vn -2.427939 2.000000 1.740187
v -0.831470 0.500000 0.555570
vn -2.795805 -2.000000 1.051957
v -0.923880 -0.500000 0.382683
vn -2.720785 2.000000 1.233073
v -0.923880 0.500000 0.382683
vn -2.947311 -2.000000 0.486317
v -0.980785 -0.500000 0.195089
vn -2.909068 2.000000 0.678579
v -0.980785 0.500000 0.195089
vn -2.985554 -2.000000 -0.098019
v -1.000000 -0.500000 -0.000001
vn -2.985554 2.000000 0.098019
v -1.000000 0.500000 -0.000001
vn -2.909065 -2.000000 -0.678591
v -0.980785 -0.500000 -0.195091
vn -2.947309 2.000000 -0.486323
v -0.980785 0.500000 -0.195091
vn -2.720783 -2.000000 -1.233079
v -0.923879 -0.500000 -0.382684
vn -2.795801 2.000000 -1.051969
v -0.923879 0.500000 -0.382684
vn -2.427943 -2.000000 -1.740182
v -0.831469 -0.500000 -0.555571
vn -2.536854 2.000000 -1.577186
v -0.831469 0.500000 -0.555571
vn -2.041790 -2.000000 -2.180420
v -0.707106 -0.500000 -0.707108
vn -2.180412 2.000000 -2.041799
v -0.707106 0.500000 -0.707108
vn -1.577183 -2.000000 -2.536856
v -0.555569 -0.500000 -0.831470
vn -1.740176 2.000000 -2.427948
v -0.555569 0.500000 -0.831470
vn -1.051969 -2.000000 -2.795801
v -0.382682 -0.500000 -0.923880
vn -1.233079 2.000000 -2.720783
v -0.382682 0.500000 -0.923880
vn -0.486314 -1.000000 -2.947310
v -0.195089 -0.500000 -0.980786
vn -0.678586 2.000000 -2.909065
v -0.195089 0.500000 -0.980786
# 64 vertices, 0 vertices normals

f 1//1 2//2 4//4
f 1//1 4//4 3//3
f 3//3 4//4 6//6
f 3//3 6//6 5//5
f 5//5 6//6 8//8
f 5//5 8//8 7//7
f 7//7 8//8 10//10
f 7//7 10//10 9//9
f 9//9 10//10 12//12
f 9//9 12//12 11//11
f 11//11 12//12 14//14
f 11//11 14//14 13//13
f 13//13 14//14 16//16
f 13//13 16//16 15//15
f 15//15 16//16 18//18
f 15//15 18//18 17//17
f 17//17 18//18 20//20
f 17//17 20//20 19//19
f 19//19 20//20 22//22
f 19//19 22//22 21//21
f 21//21 22//22 24//24
f 21//21 24//24 23//23
f 23//23 24//24 26//26
f 23//23 26//26 25//25
f 25//25 26//26 28//28
f 25//25 28//28 27//27
f 27//27 28//28 30//30
f 27//27 30//30 29//29
f 29//29 30//30 32//32
f 29//29 32//32 31//31
f 31//31 32//32 34//34
f 31//31 34//34 33//33
f 33//33 34//34 36//36
f 33//33 36//36 35//35
f 35//35 36//36 38//38
f 35//35 38//38 37//37
f 37//37 38//38 40//40
f 37//37 40//40 39//39
f 39//39 40//40 42//42
f 39//39 42//42 41//41
f 41//41 42//42 44//44
f 41//41 44//44 43//43
f 43//43 44//44 46//46
f 43//43 46//46 45//45
f 45//45 46//46 48//48
f 45//45 48//48 47//47
f 47//47 48//48 50//50
f 47//47 50//50 49//49
f 49//49 50//50 52//52
f 49//49 52//52 51//51
f 51//51 52//52 54//54
f 51//51 54//54 53//53
f 53//53 54//54 56//56
f 53//53 56//56 55//55
f 55//55 56//56 58//58
f 55//55 58//58 57//57
f 57//57 58//58 60//60
f 57//57 60//60 59//59
f 59//59 60//60 62//62
f 59//59 62//62 61//61
f 4//4 2//2 64//64
f 4//4 64//64 62//62
f 4//4 62//62 60//60
f 4//4 60//60 58//58
f 4//4 58//58 56//56
f 4//4 56//56 54//54
f 4//4 54//54 52//52
f 4//4 52//52 50//50
f 4//4 50//50 48//48
f 4//4 48//48 46//46
f 4//4 46//46 44//44
f 4//4 44//44 42//42
f 4//4 42//42 40//40
f 4//4 40//40 38//38
f 4//4 38//38 36//36
f 4//4 36//36 34//34
f 4//4 34//34 32//32
f 4//4 32//32 30//30
f 4//4 30//30 28//28
f 4//4 28//28 26//26
f 4//4 26//26 24//24
f 4//4 24//24 22//22
f 4//4 22//22 20//20
f 4//4 20//20 18//18
f 4//4 18//18 16//16
f 4//4 16//16 14//14
f 4//4 14//14 12//12
f 4//4 12//12 10//10
f 4//4 10//10 8//8
f 4//4 8//8 6//6
f 63//63 64//64 2//2
f 63//63 2//2 1//1
f 61//61 62//62 64//64
f 61//61 64//64 63//63
f 1//1 3//3 5//5
f 1//1 5//5 7//7
f 1//1 7//7 9//9
f 1//1 9//9 11//11
f 1//1 11//11 13//13
f 1//1 13//13 15//15
f 1//1 15//15 17//17
f 1//1 17//17 19//19
f 1//1 19//19 21//21
f 1//1 21//21 23//23
f 1//1 23//23 25//25
f 1//1 25//25 27//27
f 1//1 27//27 29//29
f 1//1 29//29 31//31
f 1//1 31//31 33//33
f 1//1 33//33 35//35
f 1//1 35//35 37//37
f 1//1 37//37 39//39
f 1//1 39//39 41//41
f 1//1 41//41 43//43
f 1//1 43//43 45//45
f 1//1 45//45 47//47
f 1//1 47//47 49//49
f 1//1 49//49 51//51
f 1//1 51//51 53//53
f 1//1 53//53 55//55
f 1//1 55//55 57//57
f 1//1 57//57 59//59
f 1//1 59//59 61//61
f 1//1 61//61 63//63
# 124 faces, 0 coords texture

# End of File
