####
#
# OBJ File Generated by Meshlab
#
####
# Object plate_80.obj
#
# Vertices: 80
# Faces: 78
#
####
mtllib ./plate_80.obj.mtl

vn 0.000000 3.141593 0.000000
v -0.500000 0.000000 0.045000 0.749020 0.749020 0.749020
vn 0.000000 3.141592 0.000000
v 0.500000 0.000000 0.045000 0.749020 0.749020 0.749020
vn 0.000000 1.570796 0.000000
v 0.500000 0.000000 0.000000 0.749020 0.749020 0.749020
vn 0.000000 1.570796 0.000000
v -0.500000 0.000000 0.000000 0.749020 0.749020 0.749020
vn 0.000000 1.570796 0.000000
v -0.500000 0.000000 0.900000 0.749020 0.749020 0.749020
vn 0.000000 1.570796 0.000000
v 0.500000 0.000000 0.900000 0.749020 0.749020 0.749020
vn 0.000000 3.141593 0.000000
v 0.500000 0.000000 0.855000 0.749020 0.749020 0.749020
vn 0.000000 3.141593 0.000000
v -0.500000 0.000000 0.855000 0.749020 0.749020 0.749020
vn 0.000000 3.141593 0.000000
v 0.500000 0.000000 0.810000 0.749020 0.749020 0.749020
vn 0.000000 3.141593 0.000000
v -0.500000 0.000000 0.810000 0.749020 0.749020 0.749020
vn 0.000000 3.141593 0.000000
v 0.500000 0.000000 0.765000 0.749020 0.749020 0.749020
vn 0.000000 3.141593 0.000000
v -0.500000 0.000000 0.765000 0.749020 0.749020 0.749020
vn 0.000000 3.141593 0.000000
v 0.500000 0.000000 0.720000 0.749020 0.749020 0.749020
vn 0.000000 3.141593 0.000000
v -0.500000 0.000000 0.720000 0.749020 0.749020 0.749020
vn 0.000000 3.141593 0.000000
v 0.500000 0.000000 0.675000 0.749020 0.749020 0.749020
vn 0.000000 3.141593 0.000000
v -0.500000 0.000000 0.675000 0.749020 0.749020 0.749020
vn 0.000000 3.141593 0.000000
v 0.500000 0.000000 0.630000 0.749020 0.749020 0.749020
vn 0.000000 3.141593 0.000000
v -0.500000 0.000000 0.630000 0.749020 0.749020 0.749020
vn 0.000000 3.141593 0.000000
v 0.500000 0.000000 0.585000 0.749020 0.749020 0.749020
vn 0.000000 3.141593 0.000000
v -0.500000 0.000000 0.585000 0.749020 0.749020 0.749020
vn 0.000000 3.141593 0.000000
v 0.500000 0.000000 0.540000 0.749020 0.749020 0.749020
vn 0.000000 3.141593 0.000000
v -0.500000 0.000000 0.540000 0.749020 0.749020 0.749020
vn 0.000000 3.141593 0.000000
v 0.500000 0.000000 0.495000 0.749020 0.749020 0.749020
vn 0.000000 3.141593 0.000000
v -0.500000 0.000000 0.495000 0.749020 0.749020 0.749020
vn 0.000000 3.141593 0.000000
v 0.500000 0.000000 0.450000 0.749020 0.749020 0.749020
vn 0.000000 3.141593 0.000000
v -0.500000 0.000000 0.450000 0.749020 0.749020 0.749020
vn 0.000000 3.141593 0.000000
v 0.500000 0.000000 0.405000 0.749020 0.749020 0.749020
vn 0.000000 3.141593 0.000000
v -0.500000 0.000000 0.405000 0.749020 0.749020 0.749020
vn 0.000000 3.141593 0.000000
v 0.500000 0.000000 0.360000 0.749020 0.749020 0.749020
vn 0.000000 3.141593 0.000000
v -0.500000 0.000000 0.360000 0.749020 0.749020 0.749020
vn 0.000000 3.141593 0.000000
v 0.500000 0.000000 0.315000 0.749020 0.749020 0.749020
vn 0.000000 3.141593 0.000000
v -0.500000 0.000000 0.315000 0.749020 0.749020 0.749020
vn 0.000000 3.141593 0.000000
v 0.500000 0.000000 0.270000 0.749020 0.749020 0.749020
vn 0.000000 3.141593 0.000000
v -0.500000 0.000000 0.270000 0.749020 0.749020 0.749020
vn 0.000000 3.141593 0.000000
v 0.500000 0.000000 0.225000 0.749020 0.749020 0.749020
vn 0.000000 3.141593 0.000000
v -0.500000 0.000000 0.225000 0.749020 0.749020 0.749020
vn 0.000000 3.141593 0.000000
v 0.500000 0.000000 0.180000 0.749020 0.749020 0.749020
vn 0.000000 3.141593 0.000000
v -0.500000 0.000000 0.180000 0.749020 0.749020 0.749020
vn 0.000000 3.141593 0.000000
v 0.500000 0.000000 0.135000 0.749020 0.749020 0.749020
vn 0.000000 3.141593 0.000000
v -0.500000 0.000000 0.135000 0.749020 0.749020 0.749020
vn 0.000000 3.141593 0.000000
v 0.500000 0.000000 0.090000 0.749020 0.749020 0.749020
vn 0.000000 3.141593 0.000000
v -0.500000 0.000000 0.090000 0.749020 0.749020 0.749020
vn 0.000000 3.141592 0.000000
v 0.500000 0.000000 0.022500 0.749020 0.749020 0.749020
vn 0.000000 3.141593 0.000000
v -0.500000 0.000000 0.877500 0.749020 0.749020 0.749020
vn 0.000000 3.141593 0.000000
v 0.500000 0.000000 0.832500 0.749020 0.749020 0.749020
vn 0.000000 3.141593 0.000000
v -0.500000 0.000000 0.832500 0.749020 0.749020 0.749020
vn 0.000000 3.141593 0.000000
v 0.500000 0.000000 0.787500 0.749020 0.749020 0.749020
vn 0.000000 3.141593 0.000000
v -0.500000 0.000000 0.787500 0.749020 0.749020 0.749020
vn 0.000000 3.141593 0.000000
v 0.500000 0.000000 0.742500 0.749020 0.749020 0.749020
vn 0.000000 3.141593 0.000000
v -0.500000 0.000000 0.742500 0.749020 0.749020 0.749020
vn 0.000000 3.141593 0.000000
v 0.500000 0.000000 0.697500 0.749020 0.749020 0.749020
vn 0.000000 3.141593 0.000000
v -0.500000 0.000000 0.697500 0.749020 0.749020 0.749020
vn 0.000000 3.141593 0.000000
v 0.500000 0.000000 0.652500 0.749020 0.749020 0.749020
vn 0.000000 3.141593 0.000000
v -0.500000 0.000000 0.652500 0.749020 0.749020 0.749020
vn 0.000000 3.141593 0.000000
v 0.500000 0.000000 0.607500 0.749020 0.749020 0.749020
vn 0.000000 3.141593 0.000000
v -0.500000 0.000000 0.607500 0.749020 0.749020 0.749020
vn 0.000000 3.141593 0.000000
v 0.500000 0.000000 0.562500 0.749020 0.749020 0.749020
vn 0.000000 3.141593 0.000000
v -0.500000 0.000000 0.562500 0.749020 0.749020 0.749020
vn 0.000000 3.141593 0.000000
v 0.500000 0.000000 0.517500 0.749020 0.749020 0.749020
vn 0.000000 3.141593 0.000000
v -0.500000 0.000000 0.517500 0.749020 0.749020 0.749020
vn 0.000000 3.141593 0.000000
v 0.500000 0.000000 0.472500 0.749020 0.749020 0.749020
vn 0.000000 3.141593 0.000000
v -0.500000 0.000000 0.472500 0.749020 0.749020 0.749020
vn 0.000000 3.141593 0.000000
v 0.500000 0.000000 0.427500 0.749020 0.749020 0.749020
vn 0.000000 3.141593 0.000000
v -0.500000 0.000000 0.427500 0.749020 0.749020 0.749020
vn 0.000000 3.141593 0.000000
v 0.500000 0.000000 0.382500 0.749020 0.749020 0.749020
vn 0.000000 3.141593 0.000000
v -0.500000 0.000000 0.382500 0.749020 0.749020 0.749020
vn 0.000000 3.141593 0.000000
v 0.500000 0.000000 0.337500 0.749020 0.749020 0.749020
vn 0.000000 3.141593 0.000000
v -0.500000 0.000000 0.337500 0.749020 0.749020 0.749020
vn 0.000000 3.141593 0.000000
v 0.500000 0.000000 0.292500 0.749020 0.749020 0.749020
vn 0.000000 3.141593 0.000000
v -0.500000 0.000000 0.292500 0.749020 0.749020 0.749020
vn 0.000000 3.141593 0.000000
v 0.500000 0.000000 0.247500 0.749020 0.749020 0.749020
vn 0.000000 3.141593 0.000000
v -0.500000 0.000000 0.247500 0.749020 0.749020 0.749020
vn 0.000000 3.141593 0.000000
v 0.500000 0.000000 0.202500 0.749020 0.749020 0.749020
vn 0.000000 3.141593 0.000000
v -0.500000 0.000000 0.202500 0.749020 0.749020 0.749020
vn 0.000000 3.141593 0.000000
v 0.500000 0.000000 0.157500 0.749020 0.749020 0.749020
vn 0.000000 3.141593 0.000000
v -0.500000 0.000000 0.157500 0.749020 0.749020 0.749020
vn 0.000000 3.141593 0.000000
v 0.500000 0.000000 0.112500 0.749020 0.749020 0.749020
vn 0.000000 3.141593 0.000000
v -0.500000 0.000000 0.112500 0.749020 0.749020 0.749020
vn 0.000000 3.141593 0.000000
v 0.500000 0.000000 0.067500 0.749020 0.749020 0.749020
vn 0.000000 3.141593 0.000000
v -0.500000 0.000000 0.067500 0.749020 0.749020 0.749020
# 80 vertices, 0 vertices normals


usemtl material_0
f 1//1 43//43 3//3
f 1//1 3//3 4//4
f 5//5 6//6 7//7
f 5//5 7//7 44//44
f 8//8 45//45 9//9
f 8//8 9//9 46//46
f 10//10 47//47 11//11
f 10//10 11//11 48//48
f 12//12 49//49 13//13
f 12//12 13//13 50//50
f 14//14 51//51 15//15
f 14//14 15//15 52//52
f 16//16 53//53 17//17
f 16//16 17//17 54//54
f 18//18 55//55 19//19
f 18//18 19//19 56//56
f 20//20 57//57 21//21
f 20//20 21//21 58//58
f 22//22 59//59 23//23
f 22//22 23//23 60//60
f 24//24 61//61 25//25
f 24//24 25//25 62//62
f 26//26 63//63 27//27
f 26//26 27//27 64//64
f 28//28 65//65 29//29
f 28//28 29//29 66//66
f 30//30 67//67 31//31
f 30//30 31//31 68//68
f 32//32 69//69 33//33
f 32//32 33//33 70//70
f 34//34 71//71 35//35
f 34//34 35//35 72//72
f 36//36 73//73 37//37
f 36//36 37//37 74//74
f 38//38 75//75 39//39
f 38//38 39//39 76//76
f 40//40 77//77 41//41
f 40//40 41//41 78//78
f 42//42 79//79 2//2
f 2//2 80//80 42//42
f 1//1 2//2 43//43
f 44//44 7//7 8//8
f 8//8 7//7 45//45
f 46//46 9//9 10//10
f 10//10 9//9 47//47
f 48//48 11//11 12//12
f 12//12 11//11 49//49
f 50//50 13//13 14//14
f 14//14 13//13 51//51
f 52//52 15//15 16//16
f 16//16 15//15 53//53
f 54//54 17//17 18//18
f 18//18 17//17 55//55
f 56//56 19//19 20//20
f 20//20 19//19 57//57
f 58//58 21//21 22//22
f 22//22 21//21 59//59
f 60//60 23//23 24//24
f 24//24 23//23 61//61
f 62//62 25//25 26//26
f 26//26 25//25 63//63
f 64//64 27//27 28//28
f 28//28 27//27 65//65
f 66//66 29//29 30//30
f 30//30 29//29 67//67
f 68//68 31//31 32//32
f 32//32 31//31 69//69
f 70//70 33//33 34//34
f 34//34 33//33 71//71
f 72//72 35//35 36//36
f 36//36 35//35 73//73
f 74//74 37//37 38//38
f 38//38 37//37 75//75
f 76//76 39//39 40//40
f 40//40 39//39 77//77
f 78//78 41//41 42//42
f 42//42 41//41 79//79
f 2//2 1//1 80//80
# 78 faces, 0 coords texture

# End of File
